<svg xmlns="http://www.w3.org/2000/svg" viewBox="0 0 50 50" width="80" height="80">
<style type="text/css">
	.st0{opacity:.2;fill:#FFFFFF;enable-background:new;}
	.st1{opacity:.4;fill:#EC6E4C;enable-background:new;}
	.st2{opacity:.7;fill:#EC6E4C;enable-background:new;}
	.st3{opacity:.6;fill:#EC6E4C;enable-background:new;}
	.st4{fill:#EC6E4C;}
	.st5{opacity:.55;fill:#FFFFFF;enable-background:new;}
	.st6{opacity:.5;fill:#FFFFFF;enable-background:new;}
</style>
<circle class="st0" cx="25" cy="25" r="25"/>
<path class="st1" d="M38,12.8L38,12.8c4.5,1.6,6.9,6.5,5.3,11c-0.1,0.3-0.2,0.6-0.4,0.9l0,0c-0.8,1.7-1.1,3.6-0.7,5.4l0,0
	c0.9,4.7-2.2,9.2-6.9,10.1c-0.3,0.1-0.7,0.1-1,0.1l0,0c-1.9,0.1-3.6,0.8-5,2.1l0,0c-3.6,3.1-9.1,2.7-12.2-1
	c-0.2-0.3-0.4-0.5-0.6-0.8l0,0c-1-1.5-2.5-2.7-4.3-3.3l0,0c-4.5-1.6-6.9-6.5-5.3-11c0.1-0.3,0.2-0.6,0.4-0.9l0,0
	c0.8-1.7,1.1-3.6,0.7-5.4l0,0c-0.9-4.7,2.2-9.2,6.9-10.1c0.3-0.1,0.7-0.1,1-0.1l0,0c1.9-0.1,3.6-0.8,5-2.1l0,0
	c3.6-3.1,9.1-2.7,12.2,1c0.2,0.3,0.4,0.5,0.6,0.8l0,0C34.7,11,36.2,12.1,38,12.8z"/>
<path class="st2" d="M31.9,12.2l2.2,0.1c3.1,0.2,5.5,2.8,5.4,5.9c0,0.2,0,0.4-0.1,0.7L39,21.1c-0.2,1.2,0,2.4,0.5,3.5l1,1.9
	c1.4,2.8,0.3,6.2-2.5,7.6c-0.2,0.1-0.4,0.2-0.6,0.3l-2,0.8c-1.1,0.4-2.1,1.2-2.8,2.2l-1.2,1.8c-1.7,2.6-5.2,3.4-7.8,1.7
	c-0.2-0.1-0.4-0.3-0.5-0.4l-1.7-1.4c-0.9-0.8-2.1-1.2-3.3-1.3l-2.2-0.1c-3.1-0.2-5.5-2.8-5.3-5.9c0-0.2,0-0.4,0.1-0.7l0.4-2.2
	c0.2-1.2,0-2.4-0.5-3.5l-1-1.9c-1.4-2.8-0.3-6.2,2.5-7.6c0.2-0.1,0.4-0.2,0.6-0.3l2-0.8c1.1-0.4,2.1-1.2,2.8-2.2l1.2-1.8
	c1.7-2.6,5.2-3.4,7.8-1.7c0.2,0.1,0.4,0.3,0.5,0.4l1.7,1.4C29.5,11.7,30.7,12.2,31.9,12.2z"/>
<path class="st3" d="M38,16.7L38,16.7c3.6,2.1,4.7,6.7,2.7,10.2c-0.1,0.3-0.3,0.5-0.5,0.7l0,0c-1,1.3-1.5,2.8-1.5,4.5l0,0
	c0,4.1-3.4,7.4-7.5,7.4c-0.3,0-0.6,0-0.9-0.1l0,0c-1.6-0.2-3.2,0.1-4.6,0.9l0,0c-3.6,2-8.1,0.8-10.2-2.8c-0.1-0.3-0.3-0.5-0.4-0.8
	l0,0c-0.6-1.5-1.7-2.7-3.1-3.5l0,0c-3.6-2.1-4.7-6.7-2.6-10.2c0.1-0.2,0.3-0.5,0.5-0.7l0,0c1-1.3,1.5-2.8,1.5-4.5l0,0
	c0-4.1,3.4-7.4,7.5-7.4c0.3,0,0.6,0,0.9,0.1l0,0c1.6,0.2,3.2-0.1,4.6-0.9l0,0c3.6-2,8.1-0.8,10.2,2.8c0.1,0.3,0.3,0.5,0.4,0.8l0,0
	C35.5,14.7,36.6,15.9,38,16.7z"/>
<circle class="st4" cx="25" cy="25" r="13.2"/>
<circle class="st5" cx="25" cy="25" r="13.2"/>
<circle class="st6" cx="21.4" cy="30.5" r="3.6"/>
</svg>